# xmcd
#
# Track frame offsets:
#	150
#	10098
#	21166
#	34099
#	46551
#	59302
#	69813
#	83528
#	96107
#	110500
#	123714
#	146684
#	159531
#	172103
#	184238
#	196017
#	208524
#	218838
#	233268
#	244887
#	258488
#	273125
#	286992
#	300636
#	315108
#
# Disc length: 4346 seconds
#
# Revision: 1
# Processed by: cddbd v1.5.2PL0 Copyright (c) Steve Scherf et al.
# Submitted via: audiograbber 1.83.01
#
DISCID=4910f819
DTITLE=Diverse - Van Morrison's Jukebox - The Songs That Inspired The Man
DYEAR=2007
DGENRE=
TTITLE0=Lead Belly - Midnight Special
TTITLE1=Lonnie Donegan - Rock Island Line
TTITLE2=Blind Lemon Jefferson - See That My Grave Is Kept Clean
TTITLE3=Sonny Terry and Brownie McGhee - Sittin' On Top Of the World
TTITLE4=Muddy Waters - I Just Wanna Make Love To You
TTITLE5=Jack Kerouac - On The Road (extract)
TTITLE6=T. Bone Walker - Stormy Monday
TTITLE7=Big Joe Williams - Baby Please Don't Go
TTITLE8=Louis Amstrong - Saint James Infirmary Blues
TTITLE9=Chalie Parker - Ko Ko
TTITLE10=Bill Doggett - Honky Tonk
TTITLE11=Ray Charles - I Got A Woman
TTITLE12=Louis Jordan - Let The Good Times Roll
TTITLE13=Louis Jordan - Caldonia
TTITLE14=Gene Vincent - Be-Bop-A-Lula
TTITLE15=Jimmy Witherspoon - Times Gettin' Tougher Than You
TTITLE16=Jimmy Reed - Ain't That Lovin' You Baby?
TTITLE17=John Lee Hooker - Boogie Chillen
TTITLE18=Hank Williams - My Bucket's Got A Hole In It
TTITLE19=Jimmie Rodgers - Muleskinner Blues
TTITLE20=Jelly Roll Morton - I Thought I Heard Buddy Bolden Say
TTITLE21=B.B. King - Three O'clock Blues
TTITLE22=Sonny Boy Williamson - Good Morning Little Schoolgirl
TTITLE23=Cab Calloway - Minnie The Moocher
TTITLE24=Screamin' Jay Hawkins - I Put A Spell On You
EXTD=
EXTT0=Trad. arranged Leadbetter 2:10
EXTT1=Trad. arranged Leadbetter 2:28
EXTT2=Jefferson 2:54
EXTT3=Jacobs/Carter 2:44
EXTT4=Dixon 2:50
EXTT5=Kerouac 2:18
EXTT6=Walker 3:03
EXTT7=Williams 3:28
EXTT8=Trad. Arranged Amstrong 3:12
EXTT9=Parker 2:56
EXTT10=Butler/Doggett/Scott/Berisford/Shepherd 5:06
EXTT11=Charles 2:54
EXTT12=Theard/Fleecie Moore 2:47
EXTT13=Fleecie Moore 2:41
EXTT14=Vincent 2:34
EXTT15=Witherspoon 2:46
EXTT16=Hunter/Otis 2:17
EXTT17=Hooker/Besman 3:11
EXTT18=Clarence Williams 2:34
EXTT19=Rodgers 2:59
EXTT20=Morton 3:14
EXTT21=King/Taub 3:45
EXTT22=Williamson 2:59
EXTT23=Calloway/Mills/Gaskin 3:12
EXTT24=Hawkins 2:26
PLAYORDER=
